<svg width="16" height="16" viewBox="0 0 16 16" fill="none" xmlns="http://www.w3.org/2000/svg">
<path d="M4 9C4.55228 9 5 9.44772 5 10V12C5 12.5523 4.55228 13 4 13C3.44772 13 3 12.5523 3 12V10C3 9.44772 3.44772 9 4 9ZM8 9C8.55228 9 9 9.44772 9 10V12C9 12.5523 8.55228 13 8 13C7.44772 13 7 12.5523 7 12V10C7 9.44772 7.44772 9 8 9ZM4 3C4.55228 3 5 3.44772 5 4V6C5 6.55228 4.55228 7 4 7C3.44772 7 3 6.55228 3 6V4C3 3.44772 3.44772 3 4 3ZM8 3C8.55228 3 9 3.44772 9 4V6C9 6.55228 8.55228 7 8 7C7.44772 7 7 6.55228 7 6V4C7 3.44772 7.44772 3 8 3ZM12 3C12.5523 3 13 3.44772 13 4V6C13 6.55228 12.5523 7 12 7C11.4477 7 11 6.55228 11 6V4C11 3.44772 11.4477 3 12 3Z" fill="#007BE5" style="fill:#007BE5;fill:color(display-p3 0.0000 0.4824 0.8980);fill-opacity:1;"/>
</svg>
