<svg width="24" height="24" viewBox="0 0 24 24" fill="none" xmlns="http://www.w3.org/2000/svg">
<path fill-rule="evenodd" clip-rule="evenodd" d="M10 6C11.1046 6 12 6.89543 12 8C12 9.10457 11.1046 10 10 10C8.89543 10 8 9.10457 8 8C8 6.89543 8.89543 6 10 6ZM7 8C7 9.65685 8.34315 11 10 11C11.6569 11 13 9.65685 13 8C13 6.34315 11.6569 5 10 5C8.34315 5 7 6.34315 7 8ZM10 13C10.5127 13 10.9594 13.0432 11.3484 13.1166L12.1755 12.2894C11.5769 12.1099 10.8591 12 10 12C7.88638 12 6.62787 12.6651 5.89648 13.3965C5.53658 13.7564 5.31742 14.1191 5.1875 14.3975C5.1227 14.5363 5.08013 14.6551 5.05273 14.7422C5.03903 14.7858 5.02831 14.8227 5.02148 14.8496C5.01846 14.8616 5.01613 14.8719 5.01425 14.8802L5.01367 14.8828C5.01312 14.8853 5.01279 14.8876 5.01248 14.8898L5.01172 14.8945L5.01074 14.8984L5.00977 14.9004V14.9014C5.01038 14.9019 5.02852 14.9057 5.5 15L5.00977 14.9023C4.95585 15.173 5.13169 15.4361 5.40234 15.4902C5.6728 15.5441 5.93585 15.369 5.99023 15.0986V15.0996L5.99059 15.0978L5.99121 15.0947C5.99365 15.0851 5.99819 15.0674 6.00586 15.043C6.02142 14.9935 6.04942 14.9163 6.09375 14.8213C6.1826 14.6309 6.33859 14.3684 6.60352 14.1035C7.12213 13.5849 8.11362 13 10 13ZM17.207 10.793C16.8409 10.4269 16.2619 10.4043 15.8691 10.7246L15.793 10.793L10.793 15.793C10.6054 15.9805 10.5 16.2348 10.5 16.5V18C10.5 18.5523 10.9477 19 11.5 19H13C13.2652 19 13.5195 18.8946 13.707 18.707L18.707 13.707C19.0976 13.3165 19.0976 12.6835 18.707 12.293L17.207 10.793ZM13 18H11.5V16.5L16.5 11.5L18 13L13 18Z" fill="black" fill-opacity="0.9" style="fill:black;fill-opacity:0.9;"/>
</svg>
