<svg width="24" height="24" viewBox="0 0 24 24" fill="none" xmlns="http://www.w3.org/2000/svg">
<path d="M4 24H20C21.1046 24 22 23.1046 22 22V6.74264C22 5.94699 21.6839 5.18393 21.1213 4.62132L17.3787 0.87868C16.8161 0.316071 16.053 0 15.2574 0H4C2.89543 0 2 0.89543 2 2V22C2 23.1046 2.89543 24 4 24Z" fill="#0D99FF" style="fill:#0D99FF;fill:color(display-p3 0.0510 0.6000 1.0000);fill-opacity:1;"/>
<path d="M15.2578 0C16.0534 6.49018e-05 16.8164 0.316355 17.3789 0.878906L21.1211 4.62109C21.6836 5.1836 21.9999 5.9467 22 6.74219V7L21.9951 6.89746C21.9439 6.39325 21.5177 6 21 6H18C16.8956 5.99989 16.0001 5.10441 16 4V1C16 0.48226 15.6068 0.0561289 15.1025 0.00488281L15 0H15.2578Z" fill="white" fill-opacity="0.4" style="fill:white;fill-opacity:0.4;"/>
<path d="M12 8.33306C13.3254 7.21979 15.2739 7.24108 16.5752 8.39751L16.832 8.62603C16.9388 8.72091 17 8.85723 17 9.00005V16.0001C17 16.1969 16.8846 16.3754 16.7051 16.4561C16.5256 16.5367 16.3151 16.5047 16.168 16.3741L15.9111 16.1456C14.9639 15.3036 13.5361 15.3036 12.5889 16.1456L12.332 16.3741C12.1427 16.5422 11.8573 16.5422 11.668 16.3741L11.4111 16.1456C10.4639 15.3036 9.03608 15.3036 8.08887 16.1456L7.83203 16.3741C7.68488 16.5047 7.47444 16.5367 7.29492 16.4561C7.11544 16.3754 7 16.1969 7 16.0001V9.00005C7 8.85723 7.06122 8.72091 7.16797 8.62603L7.4248 8.39751C8.72607 7.24108 10.6746 7.21979 12 8.33306ZM11.4111 9.14556C10.4639 8.30359 9.03608 8.30359 8.08887 9.14556L8 9.22368V14.9844C9.08073 14.3592 10.4193 14.3592 11.5 14.9844V9.22368L11.4111 9.14556ZM15.9111 9.14556C14.9639 8.30359 13.5361 8.30359 12.5889 9.14556L12.5 9.22368V14.9844C13.5807 14.3592 14.9193 14.3592 16 14.9844V9.22368L15.9111 9.14556Z" fill="white" style="fill:white;fill-opacity:1;"/>
</svg>
