<svg width="24" height="24" viewBox="0 0 24 24" fill="none" xmlns="http://www.w3.org/2000/svg">
<path d="M4 24H20C21.1046 24 22 23.1046 22 22V6.74264C22 5.94699 21.6839 5.18393 21.1213 4.62132L17.3787 0.87868C16.8161 0.316071 16.053 0 15.2574 0H4C2.89543 0 2 0.89543 2 2V22C2 23.1046 2.89543 24 4 24Z" fill="#FF5C16" style="fill:#FF5C16;fill:color(display-p3 1.0000 0.3608 0.0863);fill-opacity:1;"/>
<path d="M15.2578 0C16.0534 6.49018e-05 16.8164 0.316355 17.3789 0.878906L21.1211 4.62109C21.6836 5.1836 21.9999 5.9467 22 6.74219V7L21.9951 6.89746C21.9439 6.39325 21.5177 6 21 6H18C16.8956 5.99989 16.0001 5.10441 16 4V1C16 0.48226 15.6068 0.0561289 15.1025 0.00488281L15 0H15.2578Z" fill="white" fill-opacity="0.4" style="fill:white;fill-opacity:0.4;"/>
<path d="M16.4307 10.8086C17.1896 11.4148 17.1896 12.5852 16.4307 13.1914L16.2568 13.3115L10.499 16.7666C9.39926 17.4265 8 16.6341 8 15.3516L8 8.64843C8 7.3659 9.39926 6.57353 10.499 7.23339L16.2568 10.6885L16.4307 10.8086ZM15.7422 12.4541C16.0853 12.2482 16.0853 11.7517 15.7422 11.5459L9.98437 8.09082C9.57819 7.8471 9.06795 8.10597 9.00586 8.55566L9 8.64843L9 15.3516L9.00586 15.4443C9.06383 15.8642 9.51252 16.1177 9.90234 15.9512L9.98437 15.9092L15.7422 12.4541Z" fill="white" style="fill:white;fill-opacity:1;"/>
</svg>
