<svg width="24" height="24" viewBox="0 0 24 24" fill="none" xmlns="http://www.w3.org/2000/svg">
<path fill-rule="evenodd" clip-rule="evenodd" d="M6.18596 7.27232C6.08306 6.62839 6.62824 6.08321 7.27217 6.18611C9.61217 6.56005 14.4984 7.49863 16.0005 9.00073C17.2007 10.201 17.6807 11.7613 17.4403 13.2496L18.6922 14.5015C19.0827 14.892 19.0827 15.5252 18.6922 15.9157L15.9163 18.6917C15.5257 19.0822 14.8926 19.0822 14.5021 18.6917L13.2715 17.4611C11.7725 17.7164 10.2145 17.2144 9.00058 16.0007C7.49855 14.4986 6.55992 9.61239 6.18596 7.27232ZM8.13465 11.6848C7.78846 10.4286 7.51976 9.10574 7.32979 8.03635L11.1466 11.8531C10.8802 12.4107 10.978 13.0987 11.4399 13.5605L11.5541 13.6641C12.1433 14.1442 13.0119 14.1096 13.561 13.5605C14.1468 12.9748 14.1468 12.0252 13.561 11.4395C13.0992 10.9777 12.4113 10.8799 11.8539 11.1462L8.03875 7.33109C9.1077 7.52082 10.4295 7.78888 11.6847 8.1348C12.5104 8.36234 13.287 8.61779 13.9351 8.89784C14.6014 9.18573 15.0514 9.46582 15.2934 9.70783C16.2734 10.688 16.6411 11.9285 16.4535 13.0901L16.3713 13.5948L17.9851 15.2086L15.2092 17.9846L13.6127 16.3881L13.103 16.4751C11.9476 16.6718 10.7101 16.2958 9.70768 15.2936C9.46568 15.0516 9.18557 14.6015 8.89769 13.9353C8.61765 13.2872 8.36219 12.5105 8.13465 11.6848ZM12.1469 12.1465C12.3422 11.9512 12.6587 11.9512 12.8539 12.1465C13.0492 12.3417 13.0492 12.6583 12.8539 12.8535C12.6587 13.0488 12.3422 13.0488 12.1469 12.8535C11.9516 12.6583 11.9516 12.3417 12.1469 12.1465Z" fill="black" fill-opacity="0.9" style="fill:black;fill-opacity:0.9;"/>
</svg>
